USFL
nRows=116
nColumns=2
inDegrees=yes
endheader
time	soleus_r	
2.9375	 26.348751	
3	 26.341985	
3.0625	 26.353574	
3.125	 26.347909	
3.1875	 26.381680	
3.25	 26.357357	
3.3125	 26.354225	
3.375	 26.348836	
3.4375	 26.372259	
3.5	 26.346176	
3.5625	 26.378925	
3.625	 26.359577	
3.6875	 26.350759	
3.75	 26.381456	
3.8125	 26.392898	
3.875	 26.353508	
3.9375	 26.370931	
4	 26.482672	
4.0625	 26.447042	
4.125	 26.479296	
4.1875	 26.582402	
4.25	 26.564111	
4.3125	 26.580153	
4.375	 26.645172	
4.4375	 26.585128	
4.5	 26.531379	
4.5625	 26.591408	
4.625	 26.578116	
4.6875	 26.555459	
4.75	 26.652383	
4.8125	 26.844997	
4.875	 27.002397	
4.9375	 26.972608	
5	 27.146457	
5.0625	 27.253625	
5.125	 23.997458	
5.1875	 23.771654	
5.25	 23.718756	
5.3125	 19.890272	
5.375	 19.966277	
5.4375	 19.886009	
5.5	 19.832593	
5.5625	 19.722757	
5.625	 19.750706	
5.6875	 19.988795	
5.75	 19.859679	
5.8125	 20.024188	
5.875	 20.008403	
5.9375	 20.084580	
6	 20.100926	
6.0625	 20.033394	
6.125	 20.059763	
6.1875	 20.027276	
6.25	 20.054275	
6.3125	 19.993718	
6.375	 19.916638	
6.4375	 19.859429	
6.5	 19.961147	
6.5625	 19.978338	
6.625	 20.012391	
6.6875	 19.979471	
6.75	 19.949069	
6.8125	 20.047259	
6.875	 20.122484	
6.9375	 20.033088	
7	 20.077044	
7.0625	 20.293670	
7.125	 20.353121	
7.1875	 20.449025	
7.25	 20.177149	
7.3125	 20.215137	
7.375	 20.157772	
7.4375	 20.053733	
7.5	 20.229132	
7.5625	 20.114748	
7.625	 20.146589	
7.6875	 20.084113	
7.75	 20.097029	
7.8125	 19.967888	
7.875	 19.988723	
7.9375	 19.746621	
8	 19.736933	
8.0625	 19.707951	
8.125	 19.503841	
8.1875	 19.708805	
8.25	 19.985095	
8.3125	 20.163277	
8.375	 20.373413	
8.4375	 20.523038	
8.5	 20.640215	
8.5625	 20.566440	
8.625	 20.435687	
8.6875	 20.429785	
8.75	 20.076968	
8.8125	 20.012273	
8.875	 19.823579	
8.9375	 19.689624	
9	 19.566734	
9.0625	 19.282592	
9.125	 19.261249	
9.1875	 19.474952	
9.25	 19.658215	
9.3125	 19.662494	
9.375	 19.800303	
9.4375	 19.835322	
9.5	 19.889868	
9.5625	 19.974005	
9.625	 19.844472	
9.6875	 20.000150	
9.75	 20.131363	
9.8125	 20.191174	
9.875	 19.985764	
9.9375	 19.862736	
10	 19.990637	
10.0625	 20.032232	
10.125	 20.052920	
